<svg width="882" height="882" viewBox="0 0 882 882" fill="none" xmlns="http://www.w3.org/2000/svg">
    <g clip-path="url(#clip0)">
        <path d="M158.966 433.706C158.892 436.114 158.867 438.546 158.867 440.979C158.867 443.412 158.892 445.819 158.966 448.252C162.814 600.69 287.598 723.067 440.979 723.067C594.335 723.067 719.12 600.69 722.967 448.252C719.666 617.42 600.143 758.067 440.979 793.738C415.411 799.472 388.826 802.501 361.546 802.501C163.434 802.501 2.532 643.163 0.025 445.647C0 444.107 0 442.543 0 440.979C0 439.415 0 437.851 0.025 436.312C2.532 194.934 199.005 0 440.979 0C682.953 0 879.402 194.934 881.909 436.313C879.402 238.797 718.5 79.433 520.413 79.433C493.133 79.433 466.547 82.461 440.98 88.195C281.79 123.866 162.268 264.538 158.966 433.706Z"
              fill="url(#paint0_linear)"/>
        <path d="M723.067 440.979V779.911C646.612 843.607 548.289 881.933 440.979 881.933C199.005 881.933 2.53141 687.023 0.0244141 445.645C2.53141 643.161 163.433 802.499 361.546 802.499C388.826 802.499 415.412 799.471 440.979 793.736C600.144 758.065 719.666 617.419 722.967 448.25C723.042 445.82 723.067 443.412 723.067 440.979Z"
              fill="url(#paint1_linear)"/>
        <path d="M881.934 440.979V802.5C881.934 846.387 846.363 881.933 802.501 881.933C758.639 881.933 723.068 846.387 723.068 802.5V440.979C723.068 285.165 596.769 158.866 440.98 158.866C287.599 158.866 162.814 281.243 158.967 433.705C162.268 264.537 281.791 123.865 440.98 88.195C466.548 82.461 493.133 79.433 520.413 79.433C718.5 79.433 879.402 238.796 881.909 436.312C881.934 437.852 881.934 439.416 881.934 440.979Z"
              fill="url(#paint2_linear)"/>
    </g>
    <defs>
        <linearGradient id="paint0_linear" x1="328.121" y1="14.5734" x2="530.552" y2="770.054"
                        gradientUnits="userSpaceOnUse">
            <stop stop-color="#00E850"/>
            <stop offset="0.4911" stop-color="#00EB50"/>
            <stop offset="0.8259" stop-color="#00F44E"/>
            <stop offset="1" stop-color="#00FC4D"/>
        </linearGradient>
        <linearGradient id="paint1_linear" x1="57.8169" y1="715.216" x2="747.063" y2="530.532"
                        gradientUnits="userSpaceOnUse">
            <stop stop-color="#00E850"/>
            <stop offset="0.2803" stop-color="#00E54F"/>
            <stop offset="0.4913" stop-color="#00DB4A"/>
            <stop offset="0.6796" stop-color="#00CB43"/>
            <stop offset="0.8536" stop-color="#00B538"/>
            <stop offset="1" stop-color="#009B2C"/>
        </linearGradient>
        <linearGradient id="paint2_linear" x1="362.211" y1="114.769" x2="809.803" y2="890.023"
                        gradientUnits="userSpaceOnUse">
            <stop stop-color="#009B2C"/>
            <stop offset="0.218" stop-color="#00B337"/>
            <stop offset="0.5304" stop-color="#00D045"/>
            <stop offset="0.8019" stop-color="#00E24D"/>
            <stop offset="1" stop-color="#00E850"/>
        </linearGradient>
        <clipPath id="clip0">
            <rect width="881.934" height="881.934" fill="white"/>
        </clipPath>
    </defs>
</svg>
